<svg width="447" height="447" viewBox="0 0 447 447" fill="none" xmlns="http://www.w3.org/2000/svg">
    <path d="M446.193 216.178L411.63 60.9393C410.238 54.6881 407.094 48.9629 402.566 44.4344C398.037 39.9059 392.312 36.7616 386.061 35.3697L230.822 0.806494C226 -0.268831 221 -0.268831 216.178 0.806494L60.9393 35.3697C54.6881 36.7616 48.9629 39.9059 44.4344 44.4344C39.9059 48.9629 36.7616 54.6881 35.3697 60.9393L0.806494 216.178C-0.268831 221 -0.268831 226 0.806494 230.822L35.3697 386.061C36.7616 392.312 39.9059 398.037 44.4344 402.566C48.9629 407.094 54.6881 410.238 60.9393 411.63L216.178 446.193C221 447.269 226 447.269 230.822 446.193L386.061 411.63C392.312 410.238 398.037 407.094 402.566 402.566C407.094 398.037 410.238 392.312 411.63 386.061L446.193 230.822C447.269 226 447.269 221 446.193 216.178ZM396.285 230.529L370.56 346.016C369.227 352.018 366.21 357.515 361.862 361.862C357.515 366.21 352.018 369.227 346.016 370.56L230.529 396.285C225.9 397.316 221.1 397.316 216.471 396.285L100.984 370.56C94.9824 369.227 89.4852 366.21 85.1377 361.862C80.7903 357.515 77.7731 352.018 76.4402 346.016L50.7152 230.529C49.6836 225.9 49.6836 221.1 50.7152 216.471L76.4278 100.984C77.7607 94.9824 80.7779 89.4852 85.1253 85.1377C89.4727 80.7903 94.97 77.7731 100.972 76.4402L216.471 50.7152C221.1 49.6836 225.9 49.6836 230.529 50.7152L346.016 76.4278C352.018 77.7607 357.515 80.7779 361.862 85.1253C366.21 89.4727 369.227 94.97 370.56 100.972L396.285 216.471C397.316 221.1 397.316 225.9 396.285 230.529Z" fill="url(#paint0_linear_223_99)" />
    <path d="M446.193 216.178L411.63 60.9393C410.238 54.6881 407.094 48.9629 402.566 44.4344C398.037 39.9059 392.312 36.7616 386.061 35.3697L230.822 0.806494C226 -0.268831 221 -0.268831 216.178 0.806494L60.9393 35.3697C54.6881 36.7616 48.9629 39.9059 44.4344 44.4344C39.9059 48.9629 36.7616 54.6881 35.3697 60.9393L0.806494 216.178C-0.268831 221 -0.268831 226 0.806494 230.822L35.3697 386.061C36.7616 392.312 39.9059 398.037 44.4344 402.566C48.9629 407.094 54.6881 410.238 60.9393 411.63L216.178 446.193C221 447.269 226 447.269 230.822 446.193L386.061 411.63C392.312 410.238 398.037 407.094 402.566 402.566C407.094 398.037 410.238 392.312 411.63 386.061L446.193 230.822C447.269 226 447.269 221 446.193 216.178ZM396.285 230.529L370.56 346.016C369.227 352.018 366.21 357.515 361.862 361.862C357.515 366.21 352.018 369.227 346.016 370.56L230.529 396.285C225.9 397.316 221.1 397.316 216.471 396.285L100.984 370.56C94.9824 369.227 89.4852 366.21 85.1377 361.862C80.7903 357.515 77.7731 352.018 76.4402 346.016L50.7152 230.529C49.6836 225.9 49.6836 221.1 50.7152 216.471L76.4278 100.984C77.7607 94.9824 80.7779 89.4852 85.1253 85.1377C89.4727 80.7903 94.97 77.7731 100.972 76.4402L216.471 50.7152C221.1 49.6836 225.9 49.6836 230.529 50.7152L346.016 76.4278C352.018 77.7607 357.515 80.7779 361.862 85.1253C366.21 89.4727 369.227 94.97 370.56 100.972L396.285 216.471C397.316 221.1 397.316 225.9 396.285 230.529Z" fill="url(#paint1_linear_223_99)" />
    <path d="M233.351 330.707L341.677 119.22C344.94 112.849 336.581 106.938 331.658 112.141L238.236 210.852C236.316 212.885 234.001 214.505 231.433 215.612C228.865 216.719 226.097 217.29 223.301 217.29C220.504 217.29 217.737 216.719 215.169 215.612C212.601 214.505 210.286 212.885 208.366 210.852L115.354 112.165C110.438 106.951 102.072 112.849 105.329 119.232L213.245 330.695C214.189 332.548 215.627 334.104 217.401 335.192C219.174 336.279 221.214 336.855 223.294 336.857C225.374 336.858 227.414 336.284 229.189 335.199C230.964 334.114 232.404 332.559 233.351 330.707Z" fill="url(#paint2_linear_223_99)" />
    <path d="M233.351 330.707L341.677 119.22C344.94 112.849 336.581 106.938 331.658 112.141L238.236 210.852C236.316 212.885 234.001 214.505 231.433 215.612C228.865 216.719 226.097 217.29 223.301 217.29C220.504 217.29 217.737 216.719 215.169 215.612C212.601 214.505 210.286 212.885 208.366 210.852L115.354 112.165C110.438 106.951 102.072 112.849 105.329 119.232L213.245 330.695C214.189 332.548 215.627 334.104 217.401 335.192C219.174 336.279 221.214 336.855 223.294 336.857C225.374 336.858 227.414 336.284 229.189 335.199C230.964 334.114 232.404 332.559 233.351 330.707Z" fill="url(#paint3_linear_223_99)" />
    <defs>
        <linearGradient id="paint0_linear_223_99" x1="41.0507" y1="48.3486" x2="392.262" y2="414.156" gradientUnits="userSpaceOnUse">
            <stop stop-color="#D2748B" />
            <stop offset="1" stop-color="#865CFE" />
        </linearGradient>
        <linearGradient id="paint1_linear_223_99" x1="41.0507" y1="48.3486" x2="392.262" y2="414.156" gradientUnits="userSpaceOnUse">
            <stop stop-color="#D2748B" />
            <stop offset="1" stop-color="#8D1F7C" />
        </linearGradient>
        <linearGradient id="paint2_linear_223_99" x1="41.0507" y1="48.3486" x2="392.262" y2="414.156" gradientUnits="userSpaceOnUse">
            <stop stop-color="#D2748B" />
            <stop offset="1" stop-color="#865CFE" />
        </linearGradient>
        <linearGradient id="paint3_linear_223_99" x1="41.0507" y1="48.3486" x2="392.262" y2="414.156" gradientUnits="userSpaceOnUse">
            <stop stop-color="#D2748B" />
            <stop offset="1" stop-color="#8D1F7C" />
        </linearGradient>
    </defs>
</svg>